<svg width="2322" height="1211" viewBox="0 0 2322 1211" fill="none" xmlns="http://www.w3.org/2000/svg">
<circle cx="43" cy="62" r="10" fill="#274151"/>
<path d="M182 250.5C182 256.851 176.851 262 170.5 262C164.149 262 159 256.851 159 250.5C159 244.149 164.149 239 170.5 239C176.851 239 182 244.149 182 250.5Z" fill="#274151"/>
<circle cx="18" cy="373" r="15" fill="#274151"/>
<circle cx="64.5" cy="625.5" r="11.5" fill="#274151"/>
<circle cx="22" cy="861" r="19" fill="#274151"/>
<circle cx="188.5" cy="1089.5" r="15.5" fill="#274151"/>
<circle cx="417" cy="91" r="19" fill="#274151"/>
<circle cx="531" cy="630" r="19" fill="#274151"/>
<circle cx="484" cy="1001" r="19" fill="#274151"/>
<circle cx="962" cy="295" r="19" fill="#274151"/>
<circle cx="681" cy="33" r="19" fill="#274151"/>
<circle cx="1143" cy="62" r="19" fill="#274151"/>
<circle cx="792.5" cy="526.5" r="14.5" fill="#274151"/>
<circle cx="861" cy="1071" r="19" fill="#274151"/>
<circle cx="2197" cy="1163" r="10" transform="rotate(-180 2197 1163)" fill="#274151"/>
<path d="M2076 970.5C2076 964.149 2081.15 959 2087.5 959C2093.85 959 2099 964.149 2099 970.5C2099 976.851 2093.85 982 2087.5 982C2081.15 982 2076 976.851 2076 970.5Z" fill="#274151"/>
<circle cx="2222" cy="852" r="15" transform="rotate(-180 2222 852)" fill="#274151"/>
<circle cx="1979" cy="324" r="15" transform="rotate(-180 1979 324)" fill="#274151"/>
<circle cx="2175.5" cy="599.5" r="11.5" transform="rotate(-180 2175.5 599.5)" fill="#274151"/>
<circle cx="2243" cy="407" r="19" transform="rotate(-180 2243 407)" fill="#274151"/>
<circle cx="1908" cy="611" r="30" transform="rotate(-180 1908 611)" fill="#274151"/>
<circle cx="1823" cy="1134" r="19" transform="rotate(-180 1823 1134)" fill="#274151"/>
<circle cx="1587.5" cy="861.5" r="9.5" transform="rotate(-180 1587.5 861.5)" fill="#274151"/>
<circle cx="1478" cy="19" r="19" transform="rotate(-180 1478 19)" fill="#274151"/>
<circle cx="1740" cy="173" r="19" transform="rotate(-180 1740 173)" fill="#274151"/>
<circle cx="1298" cy="848" r="19" transform="rotate(-180 1298 848)" fill="#274151"/>
<circle cx="1559" cy="1192" r="19" transform="rotate(-180 1559 1192)" fill="#274151"/>
<circle r="19" transform="matrix(-1 0 0 1 1128 593)" fill="#274151"/>
<circle cx="1539.5" cy="413.5" r="13.5" transform="rotate(-180 1539.5 413.5)" fill="#274151"/>
<rect x="283.393" y="383.079" width="240.003" height="15" transform="rotate(15.2664 283.393 383.079)" fill="#274151"/>
<path d="M312.477 397.765L481.7 446.137L460.537 520.171L362.459 539.459L291.315 471.8L312.477 397.765Z" fill="#274151"/>
<circle cx="399.562" cy="413.297" r="11" transform="rotate(15.9523 399.562 413.297)" fill="#274151"/>
<line x1="501.959" y1="457.128" x2="495.638" y2="479.242" stroke="#274151" stroke-width="3"/>
<circle cx="495.294" cy="482.264" r="6" transform="rotate(15.9523 495.294 482.264)" fill="#274151"/>
<path d="M488.838 486.659L497.972 489.27L485.19 544.899L470.768 540.777L488.838 486.659Z" fill="#274151"/>
<rect x="2086.35" y="506.339" width="240.003" height="15" transform="rotate(15.2664 2086.35 506.339)" fill="#274151"/>
<path d="M2115.44 521.025L2284.66 569.396L2263.5 643.431L2165.42 662.718L2094.27 595.059L2115.44 521.025Z" fill="#274151"/>
<circle cx="2202.52" cy="536.557" r="11" transform="rotate(15.9523 2202.52 536.557)" fill="#274151"/>
<line x1="2304.92" y1="580.387" x2="2298.6" y2="602.502" stroke="#274151" stroke-width="3"/>
<circle cx="2298.25" cy="605.523" r="6" transform="rotate(15.9523 2298.25 605.523)" fill="#274151"/>
<path d="M2291.8 609.918L2300.93 612.529L2288.15 668.159L2273.73 664.036L2291.8 609.918Z" fill="#274151"/>
<path fill-rule="evenodd" clip-rule="evenodd" d="M169.054 83.5V87H171.054V83.5H176V81.5H171.054V78H169.054V81.5H164V83.5H169.054Z" fill="black"/>
<path fill-rule="evenodd" clip-rule="evenodd" d="M661.423 325V334H663.423V325H673V323H663.423V314H661.423V323H653V325H661.423Z" fill="black"/>
<path fill-rule="evenodd" clip-rule="evenodd" d="M302.002 767.5V776H304.002V767.5H313V765.5H304.002V757H302.002V765.5H294V767.5H302.002Z" fill="black"/>
<path fill-rule="evenodd" clip-rule="evenodd" d="M687.317 828.5V835H689.317V828.5H696V826.5H689.317V820H687.317V826.5H681V828.5H687.317Z" fill="black"/>
<path fill-rule="evenodd" clip-rule="evenodd" d="M1331.4 518V524H1333.4V518H1339.5V516H1333.4V510H1331.4V516H1325.5V518H1331.4Z" fill="black"/>
<path fill-rule="evenodd" clip-rule="evenodd" d="M1899.66 905.5V913H1901.66V905.5H1909.5V903.5H1901.66V896H1899.66V903.5H1892.5V905.5H1899.66Z" fill="black"/>
<path fill-rule="evenodd" clip-rule="evenodd" d="M1218 1115.5V1128H1221V1115.5H1232V1112.5H1221V1100H1218V1112.5H1204V1115.5H1218Z" fill="black"/>
<path fill-rule="evenodd" clip-rule="evenodd" d="M1668 542.5V555H1671V542.5H1682V539.5H1671V527H1668V539.5H1654V542.5H1668Z" fill="black"/>
<rect x="1004" y="805" width="30" height="30" fill="#274151"/>
<rect x="1283" y="294" width="30" height="30" fill="#274151"/>
<rect x="1964" y="53" width="30" height="30" fill="#274151"/>
<rect x="666" y="1181" width="30" height="30" fill="#274151"/>
<line x1="281" y1="108.5" x2="305" y2="140.5" stroke="#274151" stroke-width="5"/>
<line x1="239.768" y1="926.232" x2="251.768" y2="938.232" stroke="#274151" stroke-width="5"/>
<line x1="175.236" y1="491.118" x2="161.236" y2="519.118" stroke="#274151" stroke-width="5"/>
<line x1="442.6" y1="1145.8" x2="466.6" y2="1177.8" stroke="#274151" stroke-width="4"/>
<path d="M1654.28 1054L1637.78 1080.5" stroke="#274151" stroke-width="5"/>
<path d="M1482.28 687L1465.78 713.5" stroke="#274151" stroke-width="2"/>
<path d="M1096.19 438.981L1109.38 456.953" stroke="#274151" stroke-width="3"/>
<path d="M1536.77 164L1549.96 181.972" stroke="#274151" stroke-width="3"/>
<path d="M2078.77 173L2091.96 190.972" stroke="#274151" stroke-width="3"/>
<path d="M2044.77 773L2057.96 790.972" stroke="#274151" stroke-width="3"/>
<path d="M2025.77 1161L2038.96 1178.97" stroke="#274151" stroke-width="3"/>
<path d="M1793.25 768L1726.75 760C1718.75 810 1730.08 831.833 1736.75 836.5L1764.75 841.5C1781.95 838.7 1790.92 791.333 1793.25 768Z" fill="#274151"/>
<circle cx="1781.5" cy="800.5" r="20" stroke="#274151" stroke-width="5"/>
<path d="M949.252 61L882.752 53C874.752 103 886.085 124.833 892.752 129.5L920.752 134.5C937.952 131.7 946.918 84.3333 949.252 61Z" fill="#274151"/>
<circle cx="937.5" cy="93.5" r="20" stroke="#274151" stroke-width="5"/>
<path d="M283.252 897L216.752 889C208.752 939 220.085 960.833 226.752 965.5L254.752 970.5C271.952 967.7 280.918 920.333 283.252 897Z" fill="#274151"/>
<circle cx="271.5" cy="929.5" r="20" stroke="#274151" stroke-width="5"/>
<circle cx="2243.5" cy="141.5" r="12.5" transform="rotate(-180 2243.5 141.5)" fill="#274151"/>
<path d="M2287.25 117L2220.75 109C2212.75 159 2224.08 180.833 2230.75 185.5L2258.75 190.5C2275.95 187.7 2284.92 140.333 2287.25 117Z" fill="#274151"/>
<path d="M2287.25 117L2220.75 109C2212.75 159 2224.08 180.833 2230.75 185.5L2258.75 190.5C2275.95 187.7 2284.92 140.333 2287.25 117Z" fill="#274151"/>
<circle cx="2275.5" cy="149.5" r="20" stroke="#274151" stroke-width="5"/>
<circle cx="36.3093" cy="65.4704" r="12.5" transform="rotate(156.602 36.3093 65.4704)" fill="#274151"/>
<path d="M66.7338 25.6105L2.52529 44.6767C15.0391 93.742 34.1108 109.279 42.0825 110.915L69.7656 104.384C84.4393 94.9841 73.8584 47.9517 66.7338 25.6105Z" fill="#274151"/>
<path d="M66.7338 25.6105L2.52529 44.6767C15.0391 93.742 34.1108 109.279 42.0825 110.915L69.7656 104.384C84.4393 94.9841 73.8584 47.9517 66.7338 25.6105Z" fill="#274151"/>
<circle cx="68.8549" cy="60.1047" r="20" transform="rotate(-23.3981 68.8549 60.1047)" stroke="#274151" stroke-width="5"/>
</svg>
