<svg width="35" height="35" viewBox="0 0 35 35" fill="none" xmlns="http://www.w3.org/2000/svg">
<path fill-rule="evenodd" clip-rule="evenodd" d="M28.1943 33.0556C29.4836 33.0556 30.72 32.5434 31.6317 31.6318C32.5433 30.7202 33.0555 29.4837 33.0555 28.1945C33.0555 26.9052 32.5433 25.6688 31.6317 24.7571C30.72 23.8455 29.4836 23.3334 28.1943 23.3334C26.9051 23.3334 25.6687 23.8455 24.757 24.7571C23.8454 25.6688 23.3332 26.9052 23.3332 28.1945C23.3332 29.4837 23.8454 30.7202 24.757 31.6318C25.6687 32.5434 26.9051 33.0556 28.1943 33.0556ZM28.1943 35C29.9993 35 31.7303 34.283 33.0066 33.0067C34.2829 31.7304 34.9999 29.9994 34.9999 28.1945C34.9999 26.3895 34.2829 24.6585 33.0066 23.3822C31.7303 22.1059 29.9993 21.3889 28.1943 21.3889C26.3894 21.3889 24.6584 22.1059 23.3821 23.3822C22.1058 24.6585 21.3888 26.3895 21.3888 28.1945C21.3888 29.9994 22.1058 31.7304 23.3821 33.0067C24.6584 34.283 26.3894 35 28.1943 35V35Z" fill="white"/>
<path fill-rule="evenodd" clip-rule="evenodd" d="M28.1944 24.7917C28.4522 24.7917 28.6995 24.8941 28.8819 25.0764C29.0642 25.2588 29.1666 25.5061 29.1666 25.7639V27.792L29.854 28.4793C30.0311 28.6627 30.1291 28.9083 30.1269 29.1632C30.1246 29.4181 30.0224 29.6619 29.8421 29.8422C29.6619 30.0225 29.418 30.1247 29.1631 30.1269C28.9082 30.1291 28.6626 30.0311 28.4793 29.854L27.2222 28.597V25.7639C27.2222 25.5061 27.3246 25.2588 27.5069 25.0764C27.6893 24.8941 27.9365 24.7917 28.1944 24.7917Z" fill="white"/>
<path fill-rule="evenodd" clip-rule="evenodd" d="M7.77768 16.5278H5.83324V18.4722H7.77768V16.5278ZM5.83324 14.5833C5.31754 14.5833 4.82296 14.7882 4.45831 15.1528C4.09365 15.5175 3.88879 16.0121 3.88879 16.5278V18.4722C3.88879 18.9879 4.09365 19.4825 4.45831 19.8471C4.82296 20.2118 5.31754 20.4166 5.83324 20.4166H7.77768C8.29338 20.4166 8.78796 20.2118 9.15261 19.8471C9.51727 19.4825 9.72213 18.9879 9.72213 18.4722V16.5278C9.72213 16.0121 9.51727 15.5175 9.15261 15.1528C8.78796 14.7882 8.29338 14.5833 7.77768 14.5833H5.83324Z" fill="white"/>
<path fill-rule="evenodd" clip-rule="evenodd" d="M15.5555 16.5278H13.6111V18.4722H15.5555V16.5278ZM13.6111 14.5833C13.0954 14.5833 12.6008 14.7882 12.2361 15.1528C11.8715 15.5175 11.6666 16.0121 11.6666 16.5278V18.4722C11.6666 18.9879 11.8715 19.4825 12.2361 19.8471C12.6008 20.2118 13.0954 20.4166 13.6111 20.4166H15.5555C16.0712 20.4166 16.5658 20.2118 16.9304 19.8471C17.2951 19.4825 17.5 18.9879 17.5 18.4722V16.5278C17.5 16.0121 17.2951 15.5175 16.9304 15.1528C16.5658 14.7882 16.0712 14.5833 15.5555 14.5833H13.6111Z" fill="white"/>
<path fill-rule="evenodd" clip-rule="evenodd" d="M23.3333 16.5278H21.3889V18.4722H23.3333V16.5278ZM21.3889 14.5833C20.8732 14.5833 20.3786 14.7882 20.014 15.1528C19.6493 15.5175 19.4445 16.0121 19.4445 16.5278V18.4722C19.4445 18.9879 19.6493 19.4825 20.014 19.8471C20.3786 20.2118 20.8732 20.4166 21.3889 20.4166H23.3333C23.849 20.4166 24.3436 20.2118 24.7083 19.8471C25.0729 19.4825 25.2778 18.9879 25.2778 18.4722V16.5278C25.2778 16.0121 25.0729 15.5175 24.7083 15.1528C24.3436 14.7882 23.849 14.5833 23.3333 14.5833H21.3889Z" fill="white"/>
<path fill-rule="evenodd" clip-rule="evenodd" d="M7.77768 24.3055H5.83324V26.25H7.77768V24.3055ZM5.83324 22.3611C5.31754 22.3611 4.82296 22.5659 4.45831 22.9306C4.09365 23.2953 3.88879 23.7898 3.88879 24.3055V26.25C3.88879 26.7657 4.09365 27.2603 4.45831 27.6249C4.82296 27.9896 5.31754 28.1944 5.83324 28.1944H7.77768C8.29338 28.1944 8.78796 27.9896 9.15261 27.6249C9.51727 27.2603 9.72213 26.7657 9.72213 26.25V24.3055C9.72213 23.7898 9.51727 23.2953 9.15261 22.9306C8.78796 22.5659 8.29338 22.3611 7.77768 22.3611H5.83324Z" fill="white"/>
<path fill-rule="evenodd" clip-rule="evenodd" d="M15.5555 24.3055H13.6111V26.25H15.5555V24.3055ZM13.6111 22.3611C13.0954 22.3611 12.6008 22.5659 12.2361 22.9306C11.8715 23.2953 11.6666 23.7898 11.6666 24.3055V26.25C11.6666 26.7657 11.8715 27.2603 12.2361 27.6249C12.6008 27.9896 13.0954 28.1944 13.6111 28.1944H15.5555C16.0712 28.1944 16.5658 27.9896 16.9304 27.6249C17.2951 27.2603 17.5 26.7657 17.5 26.25V24.3055C17.5 23.7898 17.2951 23.2953 16.9304 22.9306C16.5658 22.5659 16.0712 22.3611 15.5555 22.3611H13.6111Z" fill="white"/>
<path fill-rule="evenodd" clip-rule="evenodd" d="M1.94444 5.83335C1.94444 5.5755 2.04687 5.32822 2.2292 5.14589C2.41153 4.96356 2.65882 4.86113 2.91667 4.86113H7.77778V2.91669H2.91667C2.14312 2.91669 1.40125 3.22398 0.854272 3.77096C0.307291 4.31794 0 5.05981 0 5.83335V29.1667C0 29.9402 0.307291 30.6821 0.854272 31.2291C1.40125 31.7761 2.14312 32.0834 2.91667 32.0834H22.609C22.1944 31.4895 21.8777 30.833 21.6708 30.1389H2.91667C2.65882 30.1389 2.41153 30.0365 2.2292 29.8542C2.04687 29.6718 1.94444 29.4245 1.94444 29.1667V5.83335ZM27.2222 21.457C27.8671 21.3647 28.5218 21.3647 29.1667 21.457V5.83335C29.1667 5.05981 28.8594 4.31794 28.3124 3.77096C27.7654 3.22398 27.0235 2.91669 26.25 2.91669H23.3333V4.86113H26.25C26.5078 4.86113 26.7551 4.96356 26.9375 5.14589C27.1198 5.32822 27.2222 5.5755 27.2222 5.83335V21.457ZM9.72222 4.86113H19.9918V2.91669H9.72222V4.86113Z" fill="white"/>
<path fill-rule="evenodd" clip-rule="evenodd" d="M21.3888 2.91669H9.72217V5.83335C9.72217 6.0912 9.61974 6.33849 9.43741 6.52082C9.25508 6.70315 9.0078 6.80558 8.74995 6.80558C8.4921 6.80558 8.24481 6.70315 8.06248 6.52082C7.88015 6.33849 7.77772 6.0912 7.77772 5.83335V2.91669H2.91661C2.40091 2.91669 1.90634 3.12155 1.54168 3.4862C1.17703 3.85086 0.972168 4.34543 0.972168 4.86113V9.72224C0.972168 10.2379 1.17703 10.7325 1.54168 11.0972C1.90634 11.4618 2.40091 11.6667 2.91661 11.6667H26.2499C26.7656 11.6667 27.2602 11.4618 27.6249 11.0972C27.9895 10.7325 28.1944 10.2379 28.1944 9.72224V4.86113C28.1944 4.34543 27.9895 3.85086 27.6249 3.4862C27.2602 3.12155 26.7656 2.91669 26.2499 2.91669H23.3333V5.83335C23.3333 6.0912 23.2309 6.33849 23.0485 6.52082C22.8662 6.70315 22.6189 6.80558 22.3611 6.80558C22.1032 6.80558 21.8559 6.70315 21.6736 6.52082C21.4913 6.33849 21.3888 6.0912 21.3888 5.83335V2.91669Z" fill="white"/>
<path fill-rule="evenodd" clip-rule="evenodd" d="M29.1667 11.6667H1.94446V9.72223H29.1667V11.6667Z" fill="white"/>
<path d="M5.83337 0.972222C5.83337 0.714373 5.9358 0.467085 6.11813 0.284757C6.30046 0.10243 6.54775 0 6.8056 0C7.06345 0 7.31073 0.10243 7.49306 0.284757C7.67539 0.467085 7.77782 0.714373 7.77782 0.972222V4.86111C7.77782 5.11896 7.67539 5.36625 7.49306 5.54858C7.31073 5.7309 7.06345 5.83333 6.8056 5.83333C6.54775 5.83333 6.30046 5.7309 6.11813 5.54858C5.9358 5.36625 5.83337 5.11896 5.83337 4.86111V0.972222Z" fill="white"/>
<path d="M19.4445 0.972222C19.4445 0.714373 19.5469 0.467085 19.7292 0.284757C19.9115 0.10243 20.1588 0 20.4167 0C20.6745 0 20.9218 0.10243 21.1041 0.284757C21.2865 0.467085 21.3889 0.714373 21.3889 0.972222V4.86111C21.3889 5.11896 21.2865 5.36625 21.1041 5.54858C20.9218 5.7309 20.6745 5.83333 20.4167 5.83333C20.1588 5.83333 19.9115 5.7309 19.7292 5.54858C19.5469 5.36625 19.4445 5.11896 19.4445 4.86111V0.972222Z" fill="white"/>
</svg>
