<svg width="47" height="35" viewBox="0 0 47 35" fill="none" xmlns="http://www.w3.org/2000/svg">
<path d="M29.1666 13.125C29.1666 12.7382 29.3203 12.3673 29.5938 12.0938C29.8673 11.8203 30.2382 11.6667 30.625 11.6667H39.375C39.7617 11.6667 40.1327 11.8203 40.4062 12.0938C40.6796 12.3673 40.8333 12.7382 40.8333 13.125C40.8333 13.5118 40.6796 13.8827 40.4062 14.1562C40.1327 14.4297 39.7617 14.5834 39.375 14.5834H30.625C30.2382 14.5834 29.8673 14.4297 29.5938 14.1562C29.3203 13.8827 29.1666 13.5118 29.1666 13.125Z" fill="white"/>
<path d="M29.1666 21.875C29.1666 21.4882 29.3203 21.1173 29.5938 20.8438C29.8673 20.5703 30.2382 20.4167 30.625 20.4167H39.375C39.7617 20.4167 40.1327 20.5703 40.4062 20.8438C40.6796 21.1173 40.8333 21.4882 40.8333 21.875C40.8333 22.2618 40.6796 22.6327 40.4062 22.9062C40.1327 23.1797 39.7617 23.3334 39.375 23.3334H30.625C30.2382 23.3334 29.8673 23.1797 29.5938 22.9062C29.3203 22.6327 29.1666 22.2618 29.1666 21.875Z" fill="white"/>
<path d="M5.83337 19.6875C5.83337 19.1073 6.06384 18.5509 6.47408 18.1407C6.88431 17.7305 7.44071 17.5 8.02087 17.5H16.7709C17.0582 17.4996 17.3429 17.5559 17.6084 17.6657C17.874 17.7755 18.1153 17.9366 18.3185 18.1399C18.5217 18.3431 18.6828 18.5844 18.7926 18.8499C18.9024 19.1155 18.9588 19.4001 18.9584 19.6875V21.875C18.9584 21.875 18.9584 21.9421 18.9467 22.0646C18.8173 23.1086 18.3011 24.066 17.5 24.7479C16.5521 25.5704 14.983 26.25 12.3959 26.25C5.83337 26.25 5.83337 21.875 5.83337 21.875V19.6875Z" fill="white"/>
<path d="M12.3958 14.5834C13.3628 14.5834 14.2901 14.1992 14.9738 13.5155C15.6576 12.8318 16.0417 11.9045 16.0417 10.9375C16.0417 9.97059 15.6576 9.04325 14.9738 8.35953C14.2901 7.6758 13.3628 7.29169 12.3958 7.29169C11.4289 7.29169 10.5016 7.6758 9.81784 8.35953C9.13411 9.04325 8.75 9.97059 8.75 10.9375C8.75 11.9045 9.13411 12.8318 9.81784 13.5155C10.5016 14.1992 11.4289 14.5834 12.3958 14.5834V14.5834Z" fill="white"/>
<path d="M24.7917 11.6667C24.7917 12.4402 24.4844 13.1821 23.9374 13.7291C23.3905 14.276 22.6486 14.5833 21.875 14.5833C21.1015 14.5833 20.3596 14.276 19.8126 13.7291C19.2657 13.1821 18.9584 12.4402 18.9584 11.6667C18.9584 10.8931 19.2657 10.1513 19.8126 9.60427C20.3596 9.05729 21.1015 8.75 21.875 8.75C22.6486 8.75 23.3905 9.05729 23.9374 9.60427C24.4844 10.1513 24.7917 10.8931 24.7917 11.6667Z" fill="white"/>
<path d="M21.6855 23.2663C21.5747 23.7038 21.3968 24.2317 21.111 24.7917H21.8751C23.0355 24.7917 24.1482 24.3307 24.9687 23.5103C25.7892 22.6898 26.2501 21.577 26.2501 20.4167C26.2501 19.6431 25.9428 18.9013 25.3959 18.3543C24.8489 17.8073 24.107 17.5 23.3335 17.5H21.3851C21.7001 18.1621 21.8751 18.9058 21.8751 19.6875V21.9858L21.8693 22.0704C21.8449 22.4738 21.7834 22.8741 21.6855 23.2663V23.2663Z" fill="white"/>
<path d="M7.29167 0C5.3578 0 3.50313 0.768227 2.13568 2.13568C0.768227 3.50313 0 5.3578 0 7.29167V27.7083C0 29.6422 0.768227 31.4969 2.13568 32.8643C3.50313 34.2318 5.3578 35 7.29167 35H39.375C41.3089 35 43.1635 34.2318 44.531 32.8643C45.8984 31.4969 46.6667 29.6422 46.6667 27.7083V7.29167C46.6667 5.3578 45.8984 3.50313 44.531 2.13568C43.1635 0.768227 41.3089 0 39.375 0H7.29167ZM2.91667 7.29167C2.91667 6.13134 3.3776 5.01855 4.19807 4.19807C5.01855 3.3776 6.13134 2.91667 7.29167 2.91667H39.375C40.5353 2.91667 41.6481 3.3776 42.4686 4.19807C43.2891 5.01855 43.75 6.13134 43.75 7.29167V27.7083C43.75 28.8687 43.2891 29.9815 42.4686 30.8019C41.6481 31.6224 40.5353 32.0833 39.375 32.0833H7.29167C6.13134 32.0833 5.01855 31.6224 4.19807 30.8019C3.3776 29.9815 2.91667 28.8687 2.91667 27.7083V7.29167Z" fill="white"/>
</svg>
