<svg width="20" height="20" viewBox="0 0 20 20" fill="none" xmlns="http://www.w3.org/2000/svg">
<path d="M12 8.5C12 8.36739 12.0527 8.24021 12.1464 8.14645C12.2402 8.05268 12.3674 8 12.5 8H15.5C15.6326 8 15.7598 8.05268 15.8536 8.14645C15.9473 8.24021 16 8.36739 16 8.5C16 8.63261 15.9473 8.75979 15.8536 8.85355C15.7598 8.94732 15.6326 9 15.5 9H12.5C12.3674 9 12.2402 8.94732 12.1464 8.85355C12.0527 8.75979 12 8.63261 12 8.5Z" fill="white"/>
<path d="M12 11.5C12 11.3674 12.0527 11.2402 12.1464 11.1464C12.2402 11.0527 12.3674 11 12.5 11H15.5C15.6326 11 15.7598 11.0527 15.8536 11.1464C15.9473 11.2402 16 11.3674 16 11.5C16 11.6326 15.9473 11.7598 15.8536 11.8536C15.7598 11.9473 15.6326 12 15.5 12H12.5C12.3674 12 12.2402 11.9473 12.1464 11.8536C12.0527 11.7598 12 11.6326 12 11.5Z" fill="white"/>
<path d="M4 10.75C4 10.5511 4.07902 10.3603 4.21967 10.2197C4.36032 10.079 4.55109 10 4.75 10H7.75C7.84853 9.99987 7.94611 10.0192 8.03717 10.0568C8.12822 10.0945 8.21095 10.1497 8.28062 10.2194C8.35029 10.289 8.40553 10.3718 8.44318 10.4628C8.48082 10.5539 8.50013 10.6515 8.5 10.75V11.5C8.5 11.5 8.5 11.523 8.496 11.565C8.45163 11.9229 8.27464 12.2512 8 12.485C7.675 12.767 7.137 13 6.25 13C4 13 4 11.5 4 11.5V10.75Z" fill="white"/>
<path d="M6.25 9C6.58152 9 6.89946 8.8683 7.13388 8.63388C7.3683 8.39946 7.5 8.08152 7.5 7.75C7.5 7.41848 7.3683 7.10054 7.13388 6.86612C6.89946 6.6317 6.58152 6.5 6.25 6.5C5.91848 6.5 5.60054 6.6317 5.36612 6.86612C5.1317 7.10054 5 7.41848 5 7.75C5 8.08152 5.1317 8.39946 5.36612 8.63388C5.60054 8.8683 5.91848 9 6.25 9V9Z" fill="white"/>
<path d="M10.5 8C10.5 8.26522 10.3946 8.51957 10.2071 8.70711C10.0196 8.89464 9.76522 9 9.5 9C9.23478 9 8.98043 8.89464 8.79289 8.70711C8.60536 8.51957 8.5 8.26522 8.5 8C8.5 7.73478 8.60536 7.48043 8.79289 7.29289C8.98043 7.10536 9.23478 7 9.5 7C9.76522 7 10.0196 7.10536 10.2071 7.29289C10.3946 7.48043 10.5 7.73478 10.5 8Z" fill="white"/>
<path d="M9.43504 11.977C9.39704 12.127 9.33604 12.308 9.23804 12.5H9.50004C9.89786 12.5 10.2794 12.342 10.5607 12.0607C10.842 11.7794 11 11.3978 11 11C11 10.7348 10.8947 10.4804 10.7071 10.2929C10.5196 10.1054 10.2653 10 10 10H9.33204C9.44004 10.227 9.50004 10.482 9.50004 10.75V11.538L9.49804 11.567C9.48967 11.7053 9.46858 11.8426 9.43504 11.977V11.977Z" fill="white"/>
<path d="M4.5 4C3.83696 4 3.20107 4.26339 2.73223 4.73223C2.26339 5.20107 2 5.83696 2 6.5V13.5C2 14.163 2.26339 14.7989 2.73223 15.2678C3.20107 15.7366 3.83696 16 4.5 16H15.5C16.163 16 16.7989 15.7366 17.2678 15.2678C17.7366 14.7989 18 14.163 18 13.5V6.5C18 5.83696 17.7366 5.20107 17.2678 4.73223C16.7989 4.26339 16.163 4 15.5 4H4.5ZM3 6.5C3 6.10218 3.15804 5.72064 3.43934 5.43934C3.72064 5.15804 4.10218 5 4.5 5H15.5C15.8978 5 16.2794 5.15804 16.5607 5.43934C16.842 5.72064 17 6.10218 17 6.5V13.5C17 13.8978 16.842 14.2794 16.5607 14.5607C16.2794 14.842 15.8978 15 15.5 15H4.5C4.10218 15 3.72064 14.842 3.43934 14.5607C3.15804 14.2794 3 13.8978 3 13.5V6.5Z" fill="white"/>
</svg>
