<svg width="75" height="75" viewBox="0 0 75 75" fill="none" xmlns="http://www.w3.org/2000/svg">
<g clip-path="url(#clip0_7_82)">
<path d="M57.5 67.5001L55.87 69.3951C56.3449 69.8019 56.9551 70.016 57.58 69.9951L57.5 67.5001ZM52.17 58.9401C51.759 58.4196 51.1579 58.0837 50.4992 58.0064C49.8405 57.929 49.178 58.1165 48.6575 58.5276C48.1371 58.9387 47.8012 59.5397 47.7238 60.1984C47.6465 60.8571 47.834 61.5196 48.245 62.0401L52.17 58.9401ZM54.16 56.8901L53.29 54.5501C53.2565 54.5612 53.2232 54.5729 53.19 54.5851L54.16 56.8901ZM45.47 59.4701L45.05 57.0001L45.01 57.0051L45.47 59.4651V59.4701ZM29.95 59.4101L29.475 61.8601L29.49 61.8651L29.95 59.4101ZM21.14 56.8351L20.23 59.1601L21.14 56.8301V56.8351ZM16.765 54.7951L15.375 56.8701C15.4285 56.9074 15.4836 56.9424 15.54 56.9751L16.765 54.7951ZM16.225 54.4951L17.61 52.4151C17.5234 52.3578 17.4332 52.306 17.34 52.2601L16.225 54.4951ZM15.985 54.3151L17.75 52.5451C17.5867 52.3821 17.4016 52.2425 17.2 52.1301L15.985 54.3151ZM26.755 61.9151C27.1661 61.3946 27.3536 60.7321 27.2763 60.0734C27.1989 59.4147 26.863 58.8137 26.3425 58.4026C25.8221 57.9915 25.1596 57.804 24.5009 57.8814C23.8421 57.9587 23.2411 58.2946 22.83 58.8151L26.755 61.9151ZM17.5 67.5001L17.42 70.0001C18.0569 70.0205 18.6775 69.7969 19.155 69.3751L17.5 67.5001ZM2.50004 56.2351H3.71437e-05C-0.000692889 56.369 0.00933939 56.5028 0.0300371 56.6351L2.50004 56.2351ZM11.13 13.7951L9.63004 11.7951C9.24832 12.0822 8.95683 12.4725 8.79004 12.9201L11.13 13.7951ZM27.97 7.50009L30.46 7.26509C30.4025 6.65464 30.1227 6.0866 29.6738 5.669C29.2248 5.25139 28.638 5.01333 28.025 5.00009L27.975 7.50009H27.97ZM26.08 14.0301C26.143 14.6905 26.4658 15.2988 26.9773 15.7212C27.4888 16.1436 28.1471 16.3456 28.8075 16.2826C29.4679 16.2196 30.0762 15.8969 30.4987 15.3853C30.9211 14.8738 31.123 14.2155 31.06 13.5551L26.08 14.0301ZM43.71 13.7151C43.6258 14.3728 43.8064 15.0371 44.2119 15.5617C44.6175 16.0863 45.2148 16.4284 45.8725 16.5126C46.5303 16.5968 47.1945 16.4163 47.7192 16.0107C48.2438 15.6052 48.5858 15.0078 48.67 14.3501L43.71 13.7151ZM47.03 7.50009L46.975 5.00009C46.3768 5.01314 45.8032 5.24029 45.3582 5.64031C44.9132 6.04032 44.6265 6.58666 44.55 7.18009L47.03 7.50009ZM63.87 13.7951L66.21 12.9201C66.0432 12.4725 65.7518 12.0822 65.37 11.7951L63.87 13.7951ZM72.5 56.2351L74.97 56.6351C74.9908 56.5028 75.0008 56.369 75 56.2351H72.5ZM32.405 44.0001L29.905 43.9601V44.0001H32.405ZM57.5 67.5001L59.13 65.6051L59.12 65.5951C59.0444 65.5345 58.971 65.4711 58.9 65.4051C57.9933 64.6202 57.0998 63.8201 56.22 63.0051C54.595 61.5151 52.92 59.8951 52.17 58.9401L48.245 62.0401C49.285 63.3601 51.26 65.2401 52.835 66.6901C53.8113 67.5869 54.7997 68.4703 55.8 69.3401L55.85 69.3801L55.865 69.3901L57.5 67.5001ZM59.68 51.2701C57.38 52.7851 55.21 53.8351 53.29 54.5501L55.03 59.2351C57.6321 58.2557 60.1146 56.9842 62.43 55.4451L59.68 51.2701ZM53.195 54.5851C50.5822 55.7024 47.8491 56.5144 45.05 57.0051L45.89 61.9351C49.0651 61.3798 52.1655 60.4604 55.13 59.1951L53.195 54.5851ZM45.01 57.0101C40.182 57.8981 35.2306 57.8777 30.41 56.9501L29.49 61.8651C34.9187 62.9064 40.4939 62.9268 45.93 61.9251L45.01 57.0101ZM30.425 56.9551C27.5646 56.3952 24.7613 55.5751 22.05 54.5051L20.23 59.1601C22.79 60.1601 25.88 61.1701 29.475 61.8601L30.425 56.9551ZM22.05 54.5051C20.6534 53.9689 19.2952 53.3374 17.985 52.6151L15.54 56.9751C17.17 57.8901 18.78 58.5951 20.23 59.1601L22.05 54.5051ZM18.15 52.7151C17.915 52.5551 17.685 52.4451 17.61 52.4101C17.51 52.3601 17.555 52.3751 17.61 52.4151L14.835 56.5751C15.075 56.7351 15.3 56.8451 15.375 56.8801C15.48 56.9301 15.435 56.9151 15.375 56.8701L18.155 52.7201L18.15 52.7151ZM17.34 52.2601C17.44 52.3101 17.54 52.3701 17.64 52.4501C17.725 52.5201 17.79 52.5801 17.75 52.5501L14.215 56.0851C14.33 56.2001 14.62 56.4851 15.105 56.7351L17.34 52.2601ZM17.2 52.1301C16.7238 51.8664 16.2568 51.5862 15.8 51.2901L15.745 51.2501C15.7434 51.25 15.7417 51.25 15.74 51.2501L14.305 53.3001L12.875 55.3451L12.88 55.3501L12.89 55.3601L12.925 55.3801L13.03 55.4501L13.405 55.6951C13.725 55.8951 14.185 56.1751 14.77 56.5001L17.2 52.1301ZM22.83 58.8201C22.07 59.7851 20.385 61.4451 18.765 62.9651C17.8782 63.7941 16.9815 64.6125 16.075 65.4201L15.905 65.5751L15.855 65.6151L15.85 65.6251H15.845L17.5 67.5001L19.155 69.3751L19.16 69.3701L19.175 69.3601L19.225 69.3151L19.405 69.1551C20.3384 68.3176 21.2634 67.4709 22.18 66.6151C23.755 65.1351 25.72 63.2301 26.755 61.9151L22.83 58.8151V58.8201ZM17.58 65.0001C11.75 64.8151 8.69004 62.3951 7.03004 60.2001C6.10671 58.9743 5.42771 57.5823 5.03004 56.1001C5.00593 56.0073 4.98426 55.914 4.96504 55.8201V55.8301L2.50004 56.2301C0.0300373 56.6301 0.0300371 56.6301 0.0350371 56.6351V56.6651C0.0716032 56.8789 0.118323 57.0908 0.175037 57.3001C0.73546 59.4396 1.70871 61.449 3.04004 63.2151C5.56504 66.5501 10.005 69.7651 17.42 70.0001L17.58 65.0001ZM5.00004 56.2351C5.00004 46.9001 7.10004 36.5351 9.23504 28.4151C10.3678 24.1146 11.6621 19.8582 13.115 15.6551C13.2248 15.3444 13.3365 15.0344 13.45 14.7251L13.47 14.6751V14.6701L11.13 13.7951L8.78504 12.9201V12.9251L8.78004 12.9401L8.76004 12.9951C8.63627 13.3271 8.51626 13.6604 8.40004 13.9951C6.90193 18.3249 5.56764 22.7097 4.40004 27.1401C2.21504 35.4151 3.71437e-05 46.2651 3.71437e-05 56.2351H5.00004ZM12.63 15.7951C16.63 12.7951 20.515 11.3451 23.38 10.6451C24.7909 10.3011 26.2302 10.0869 27.68 10.0051C27.7617 10.0021 27.8433 10.0004 27.925 10.0001H27.92L27.97 7.50009L28.02 5.00009H28C27.9534 4.99932 27.9067 4.99932 27.86 5.00009H27.52C27.1193 5.01464 26.7191 5.04132 26.32 5.08009C24.9298 5.2148 23.5511 5.45042 22.195 5.78509C17.6442 6.91533 13.3698 8.95644 9.63004 11.7851L12.63 15.7851V15.7951ZM25.48 7.73509L26.08 14.0301L31.06 13.5551L30.46 7.26509L25.48 7.73509ZM48.67 14.3501L49.51 7.82009L44.55 7.18009L43.71 13.7151L48.67 14.3501ZM47.03 7.50009L47.08 10.0001H47.075C47.1567 9.99606 47.2384 9.99606 47.32 10.0001C47.51 10.0101 47.82 10.0251 48.215 10.0651C49.015 10.1351 50.185 10.3001 51.62 10.6501C54.485 11.3501 58.37 12.7951 62.37 15.7951L65.37 11.7951C61.6303 8.96632 57.3559 6.9252 52.805 5.79509C51.4491 5.45869 50.0704 5.22139 48.68 5.08509C48.1198 5.03295 47.5577 5.00459 46.995 5.00009H46.985H46.98L47.03 7.50009ZM63.87 13.7951L61.525 14.6651L61.53 14.6801L61.55 14.7251L61.615 14.9101L61.88 15.6551C63.3345 19.8582 64.6304 24.1146 65.765 28.4151C67.905 36.5351 70 46.9001 70 56.2351H75C75 46.2651 72.78 35.4151 70.6 27.1401C69.4321 22.7098 68.0978 18.325 66.6 13.9951C66.5065 13.7312 66.4115 13.4679 66.315 13.2051L66.24 12.9951L66.22 12.9451L66.215 12.9251L63.865 13.7951H63.87ZM72.5 56.2351L70.035 55.8351V55.8301V55.8251V55.8201L70.025 55.8601L69.975 56.0951C69.915 56.3201 69.825 56.6601 69.67 57.0801C69.36 57.9301 68.835 59.0601 67.97 60.2001C66.31 62.3951 63.25 64.8151 57.42 65.0001L57.58 70.0001C64.995 69.7651 69.43 66.5501 71.96 63.2201C73.2918 61.4524 74.2651 59.4413 74.825 57.3001C74.8742 57.1047 74.9175 56.908 74.955 56.7101L74.965 56.6601V56.6451V56.6401C74.965 56.6351 74.965 56.6301 72.5 56.2351ZM26.295 34.8501C21.285 34.8501 17.68 39.1851 17.68 44.0001H22.68C22.68 41.5101 24.465 39.8501 26.295 39.8501V34.8501ZM17.68 44.0001C17.68 48.8351 21.36 53.1501 26.295 53.1501V48.1501C24.51 48.1501 22.68 46.4801 22.68 44.0001H17.68ZM26.295 53.1501C31.295 53.1501 34.905 48.8201 34.905 44.0001H29.905C29.905 46.5001 28.12 48.1501 26.295 48.1501V53.1501ZM34.9 44.0501C34.98 39.1601 31.26 34.8501 26.29 34.8501V39.8551C28.15 39.8551 29.94 41.5451 29.9 43.9651L34.9 44.0501ZM48.165 34.8501C43.155 34.8551 39.55 39.1901 39.55 44.0051H44.55C44.55 41.5151 46.335 39.8551 48.165 39.8551V34.8551V34.8501ZM39.55 44.0101C39.55 48.8451 43.23 53.1601 48.165 53.1601V48.1601C46.38 48.1601 44.55 46.4901 44.55 44.0101H39.55ZM48.165 53.1601C53.165 53.1601 56.775 48.8301 56.775 44.0101H51.775C51.775 46.5101 49.99 48.1601 48.165 48.1601V53.1601ZM56.775 44.0101C56.775 39.1951 53.17 34.8601 48.165 34.8601V39.8601C49.99 39.8601 51.775 41.5201 51.775 44.0101H56.775ZM18.7 22.2001C25.915 18.2651 31.795 16.4301 37.515 16.4251C43.24 16.4251 49.105 18.2501 56.305 22.1951L58.705 17.8151C51.095 13.6401 44.38 11.4201 37.515 11.4251C30.65 11.4251 23.93 13.6501 16.31 17.8101L18.7 22.2001Z" fill="white"/>
</g>
<defs>
<clipPath id="clip0_7_82">
<rect width="75" height="75" fill="white"/>
</clipPath>
</defs>
</svg>
