<svg width="90" height="90" viewBox="0 0 90 90" fill="none" xmlns="http://www.w3.org/2000/svg">
<path d="M40.1063 33.5137V38.6775H36.3263V44.9887H40.1063V63.75H47.8763V44.9887H53.0888C53.0888 44.9887 53.58 41.9625 53.8163 38.6512H47.9063V34.3387C47.9063 33.69 48.7538 32.8237 49.5938 32.8237H53.8238V26.25H48.0675C39.915 26.25 40.1063 32.5687 40.1063 33.5137Z" fill="white"/>
<path d="M45 75C52.9565 75 60.5871 71.8393 66.2132 66.2132C71.8393 60.5871 75 52.9565 75 45C75 37.0435 71.8393 29.4129 66.2132 23.7868C60.5871 18.1607 52.9565 15 45 15C37.0435 15 29.4129 18.1607 23.7868 23.7868C18.1607 29.4129 15 37.0435 15 45C15 52.9565 18.1607 60.5871 23.7868 66.2132C29.4129 71.8393 37.0435 75 45 75ZM45 82.5C24.2888 82.5 7.5 65.7113 7.5 45C7.5 24.2888 24.2888 7.5 45 7.5C65.7113 7.5 82.5 24.2888 82.5 45C82.5 65.7113 65.7113 82.5 45 82.5Z" fill="white"/>
</svg>
