<svg width="75" height="75" viewBox="0 0 75 75" fill="none" xmlns="http://www.w3.org/2000/svg">
<path fill-rule="evenodd" clip-rule="evenodd" d="M37.5 6.25C20.2406 6.25 6.25 20.2406 6.25 37.5C6.25 54.7594 20.2406 68.75 37.5 68.75C54.7594 68.75 68.75 54.7594 68.75 37.5C68.75 20.2406 54.7594 6.25 37.5 6.25ZM0 37.5C0 16.7891 16.7891 0 37.5 0C58.2109 0 75 16.7891 75 37.5C75 58.2109 58.2109 75 37.5 75C16.7891 75 0 58.2109 0 37.5Z" fill="white"/>
<path fill-rule="evenodd" clip-rule="evenodd" d="M29.9734 71.0484C29.6719 70.6578 29.6719 67.1828 29.9734 60.6219C26.7359 60.7344 24.6922 60.5094 23.8375 59.9484C22.5562 59.1047 21.275 56.5109 20.1391 54.6812C19.0016 52.8515 16.4781 52.5625 15.4594 52.1531C14.4406 51.7437 14.1844 50.0781 18.2672 51.3375C22.35 52.5984 22.5484 56.0328 23.8375 56.8344C25.125 57.6375 28.2047 57.2875 29.6016 56.6437C30.9969 56 30.8937 53.6062 31.1422 52.6578C31.4578 51.7719 30.3484 51.575 30.3234 51.5687C28.9609 51.5687 21.8031 50.0109 19.8359 43.0797C17.8703 36.1469 20.4031 31.6156 21.7547 29.6672C22.6547 28.3703 22.575 25.6015 21.5156 21.3656C25.3641 20.8734 28.3344 22.0844 30.4266 25C30.4297 25.0156 33.1687 23.3703 37.5 23.3703C41.8312 23.3703 43.3672 24.7109 44.5531 25C45.7391 25.289 46.6875 19.8969 54.0109 21.3656C52.4812 24.3703 51.2016 28.125 52.1781 29.6672C53.1562 31.2109 56.9906 36.1172 54.6344 43.0797C53.0641 47.7203 49.9781 50.55 45.3719 51.5687C44.8437 51.7359 44.5797 52.0078 44.5797 52.3828C44.5797 52.9453 45.2937 53.0078 46.3219 55.6437C47.0078 57.4 47.0562 62.4187 46.4703 70.6984C44.9859 71.0765 43.8297 71.3297 43.0016 71.4609C41.5375 71.6906 39.9484 71.8203 38.3859 71.8687C36.8234 71.9187 36.2797 71.914 34.1203 71.7125C32.7246 71.5853 31.3391 71.3635 29.9734 71.0484Z" fill="white"/>
</svg>
