<svg width="237" height="203" viewBox="0 0 237 203" fill="none" xmlns="http://www.w3.org/2000/svg">
<path d="M95.3426 6.89795C102.227 2.39704 110.274 0 118.5 0C126.725 0 134.772 2.39704 141.657 6.89795L233.168 66.7204C234.336 67.4843 235.297 68.5252 235.966 69.7506C236.635 70.976 236.99 72.3477 237 73.7435C237.01 75.1394 236.674 76.5161 236.024 77.751C235.373 78.9858 234.427 80.0405 233.269 80.8212L142.232 142.438C135.229 147.179 126.965 149.713 118.508 149.713C110.051 149.713 101.787 147.179 94.7839 142.438L16.9335 89.7759V143.217C16.9335 145.461 16.0418 147.614 14.4545 149.201C12.8672 150.789 10.7144 151.68 8.46967 151.68C6.22492 151.68 4.07211 150.789 2.48483 149.201C0.897551 147.614 0.00582788 145.461 0.00582788 143.217V75.5059C0.00582788 75.235 0.00582744 74.9472 0.0396828 74.6595C-0.109722 73.1189 0.1645 71.5667 0.832746 70.1705C1.50099 68.7744 2.53788 67.5873 3.83148 66.7373L95.3426 6.91488V6.89795Z" fill="#F0E8E8"/>
<path d="M33.8596 160.145V121.651L85.2859 156.471C95.0904 163.108 106.658 166.656 118.498 166.656C130.338 166.656 141.906 163.108 151.71 156.471L203.136 121.651V160.145C203.137 162.154 202.423 164.098 201.122 165.629L194.673 160.145L201.122 165.629L201.105 165.663L201.071 165.697L200.97 165.816L200.631 166.188C198.886 168.092 197.062 169.922 195.164 171.673C191.439 175.109 185.989 179.645 178.947 184.199C164.897 193.272 144.262 202.481 118.515 202.481C92.7341 202.481 72.1162 193.272 58.0493 184.199C52.2906 180.494 46.8596 176.304 41.8156 171.673C39.9224 169.922 38.1039 168.092 36.3649 166.188L36.0264 165.816L35.9248 165.697L35.8909 165.663L42.3235 160.162C35.874 165.629 35.8909 165.646 35.8909 165.646C34.5837 164.111 33.8639 162.161 33.8596 160.145V160.145Z" fill="#F0E8E8"/>
</svg>
