<svg width="75" height="84" viewBox="0 0 75 84" fill="none" xmlns="http://www.w3.org/2000/svg">
<path d="M37.5 25.0788C29.187 25.0788 22.478 32.564 22.478 41.8388C22.478 51.1137 29.187 58.5989 37.5 58.5989C45.813 58.5989 52.522 51.1137 52.522 41.8388C52.522 32.564 45.813 25.0788 37.5 25.0788ZM37.5 52.7316C32.124 52.7316 27.7368 47.8368 27.7368 41.8388C27.7368 35.8408 32.124 30.946 37.5 30.946C42.876 30.946 47.2632 35.8408 47.2632 41.8388C47.2632 47.8368 42.876 52.7316 37.5 52.7316ZM53.1372 20.4863C51.1963 20.4863 49.6289 22.235 49.6289 24.4005C49.6289 26.566 51.1963 28.3147 53.1372 28.3147C55.0781 28.3147 56.6455 26.5742 56.6455 24.4005C56.6461 23.8863 56.5557 23.377 56.3796 22.9019C56.2035 22.4267 55.9451 21.9949 55.6192 21.6313C55.2934 21.2677 54.9064 20.9794 54.4805 20.7829C54.0546 20.5865 53.5981 20.4857 53.1372 20.4863ZM66.7822 41.8388C66.7822 37.3281 66.8189 32.8582 66.5918 28.3556C66.3647 23.1258 65.2954 18.4843 61.8677 14.6599C58.4326 10.8274 54.2798 9.64253 49.5923 9.38921C45.5493 9.13589 41.543 9.17675 37.5073 9.17675C33.4644 9.17675 29.458 9.13589 25.4224 9.38921C20.7349 9.64253 16.5747 10.8356 13.147 14.6599C9.71191 18.4924 8.6499 23.1258 8.42285 28.3556C8.1958 32.8664 8.23242 37.3363 8.23242 41.8388C8.23242 46.3414 8.1958 50.8195 8.42285 55.322C8.6499 60.5519 9.71924 65.1934 13.147 69.0177C16.582 72.8502 20.7349 74.0351 25.4224 74.2884C29.4653 74.5418 33.4717 74.5009 37.5073 74.5009C41.5503 74.5009 45.5566 74.5418 49.5923 74.2884C54.2798 74.0351 58.4399 72.8421 61.8677 69.0177C65.3027 65.1852 66.3647 60.5519 66.5918 55.322C66.8262 50.8195 66.7822 46.3496 66.7822 41.8388ZM60.3369 61.1076C59.8022 62.5948 59.1577 63.7062 58.125 64.8502C57.0923 66.0024 56.1035 66.7215 54.7705 67.318C50.918 69.0259 41.77 68.6418 37.5 68.6418C33.23 68.6418 24.0747 69.0259 20.2222 67.3262C18.8892 66.7297 17.8931 66.0106 16.8677 64.8584C15.835 63.7062 15.1904 62.603 14.6558 61.1157C13.1323 56.8093 13.4766 46.6029 13.4766 41.8388C13.4766 37.0748 13.1323 26.8602 14.6558 22.5619C15.1904 21.0747 15.835 19.9633 16.8677 18.8193C17.9004 17.6753 18.8892 16.948 20.2222 16.3515C24.0747 14.6518 33.23 15.0358 37.5 15.0358C41.77 15.0358 50.9253 14.6518 54.7778 16.3515C56.1108 16.948 57.1069 17.6671 58.1323 18.8193C59.165 19.9715 59.8096 21.0747 60.3442 22.5619C61.8677 26.8602 61.5234 37.0748 61.5234 41.8388C61.5234 46.6029 61.8677 56.8093 60.3369 61.1076Z" fill="white"/>
</svg>
