<svg xmlns="http://www.w3.org/2000/svg" width="335" height="334" fill="none" style=""><rect id="backgroundrect" width="100%" height="100%" x="0" y="0" fill="none" stroke="none" class="" style=""/><g class="currentLayer" style=""><title>Layer 1</title><path d="M0.045000000000001705,333.999 l167.749,-167.553 l166.641,167.553 H0.045000000000001705 zM0,0 h167.749 L0,166.447 V0 z" fill="#4285F4" id="svg_1" class=""/><path d="M167.795,0 L0.046999999999997044,166.447 V334 l167.748,-167.553 L334.436,0 H167.795 z" fill="#E76F44" id="svg_2" class=""/><path d="M284.757,257.024 c-2.214,-2.242 -2.203,-5.877 0.05100000000000001,-8.097 a5.737,5.737 0 0 1 8.107,0.06400000000000002 c2.214,2.243 2.203,5.878 -0.05100000000000001,8.097 c-2.254,2.219 -5.894,2.179 -8.107,-0.06400000000000002 zm-44.477,-45.056 c-2.213,-2.242 -2.203,-5.877 0.05100000000000001,-8.096 a5.736,5.736 0 0 1 8.108,0.06400000000000002 c2.213,2.242 2.202,5.877 -0.05200000000000001,8.096 a5.736,5.736 0 0 1 -8.107,-0.06400000000000002 zm70.453,22.356 l22.144,-5.734 a2.383,2.383 0 0 0 1.6980000000000002,-2.9050000000000002 a2.3930000000000002,2.3930000000000002 0 0 0 -2.911,-1.7000000000000002 l-22.424,5.816 c-3.351,-9.144 -8.737,-17.807 -16.201,-25.367 c-7.463,-7.561 -16.059,-13.063 -25.167,-16.539 l6.143,-22.31 a2.39,2.39 0 0 0 -1.6620000000000001,-2.931 a2.386,2.386 0 0 0 -2.932,1.6540000000000001 l-6.056,22.031 c-21.421,-6.503 -45.016,-2.118 -63.117,12.949 l96.623,97.88 c15.354,-17.873 20.081,-41.373 13.862,-62.844 z" fill="#3DDC84" id="svg_3" class=""/></g></svg>