<svg width="76" height="75" viewBox="0 0 76 75" fill="none" xmlns="http://www.w3.org/2000/svg">
<path d="M75.5034 45.9823V75H59.32V47.925C59.32 41.1218 56.9784 36.4815 51.1224 36.4815C46.651 36.4815 43.9878 39.6117 42.8189 42.6358C42.3914 43.7172 42.2817 45.2234 42.2817 46.7374V75H26.0908C26.0908 75 26.3102 29.1474 26.0908 24.3931H42.2817V31.5659L42.1758 31.7311H42.2817V31.5659C44.4304 28.125 48.2701 23.2055 56.8687 23.2055C67.5176 23.2055 75.5034 30.4412 75.5034 45.9823ZM9.15846 0C3.62404 0 0 3.77517 0 8.74187C0 13.5985 3.51812 17.4877 8.94661 17.4877H9.05254C14.7004 17.4877 18.2072 13.5985 18.2072 8.74187C18.1089 3.77517 14.7042 0 9.16224 0H9.15846ZM0.960862 75H17.1442V24.3931H0.960862V75Z" fill="white"/>
</svg>
