<svg width="35" height="44" viewBox="0 0 35 44" fill="none" xmlns="http://www.w3.org/2000/svg">
<path d="M17.5 0C11.4844 0 6.5625 4.92188 6.5625 10.9375V15.3125H10.9375V10.9375C10.9375 7.32813 13.8906 4.375 17.5 4.375C21.1094 4.375 24.0625 7.32813 24.0625 10.9375V15.3125H28.4375V10.9375C28.4375 4.92188 23.5156 0 17.5 0Z" fill="#424242"/>
<path d="M30.625 43.75H4.375C1.96875 43.75 0 41.7813 0 39.375V19.6875C0 17.2812 1.96875 15.3125 4.375 15.3125H30.625C33.0313 15.3125 35 17.2812 35 19.6875V39.375C35 41.7813 33.0313 43.75 30.625 43.75Z" fill="#FB8C00"/>
<path d="M17.4999 32.8125C19.3121 32.8125 20.7812 31.3434 20.7812 29.5312C20.7812 27.7191 19.3121 26.25 17.4999 26.25C15.6878 26.25 14.2187 27.7191 14.2187 29.5312C14.2187 31.3434 15.6878 32.8125 17.4999 32.8125Z" fill="#C76E00"/>
</svg>
