<svg width="48" height="48" viewBox="0 0 48 48" fill="none" xmlns="http://www.w3.org/2000/svg">
<path d="M24 16C23.0717 16 22.1815 15.6313 21.5251 14.9749C20.8687 14.3185 20.5 13.4283 20.5 12.5C20.5 11.5717 20.8687 10.6815 21.5251 10.0251C22.1815 9.36875 23.0717 9 24 9C24.9283 9 25.8185 9.36875 26.4749 10.0251C27.1313 10.6815 27.5 11.5717 27.5 12.5C27.5 13.4283 27.1313 14.3185 26.4749 14.9749C25.8185 15.6313 24.9283 16 24 16Z" fill="white"/>
<path d="M24 27.5C23.0717 27.5 22.1815 27.1313 21.5251 26.4749C20.8687 25.8185 20.5 24.9283 20.5 24C20.5 23.0717 20.8687 22.1815 21.5251 21.5251C22.1815 20.8687 23.0717 20.5 24 20.5C24.9283 20.5 25.8185 20.8687 26.4749 21.5251C27.1313 22.1815 27.5 23.0717 27.5 24C27.5 24.9283 27.1313 25.8185 26.4749 26.4749C25.8185 27.1313 24.9283 27.5 24 27.5Z" fill="white"/>
<path d="M20.5 35.5C20.5 36.4283 20.8687 37.3185 21.5251 37.9749C22.1815 38.6312 23.0717 39 24 39C24.9283 39 25.8185 38.6312 26.4749 37.9749C27.1313 37.3185 27.5 36.4283 27.5 35.5C27.5 34.5717 27.1313 33.6815 26.4749 33.0251C25.8185 32.3688 24.9283 32 24 32C23.0717 32 22.1815 32.3688 21.5251 33.0251C20.8687 33.6815 20.5 34.5717 20.5 35.5Z" fill="white"/>
</svg>
