<svg width="18" height="18" viewBox="0 0 18 18" fill="none" xmlns="http://www.w3.org/2000/svg">
<path d="M12.375 6.75C12.375 7.64511 12.0194 8.50355 11.3865 9.13649C10.7536 9.76942 9.89511 10.125 9 10.125C8.10489 10.125 7.24645 9.76942 6.61351 9.13649C5.98058 8.50355 5.625 7.64511 5.625 6.75C5.625 5.85489 5.98058 4.99645 6.61351 4.36351C7.24645 3.73058 8.10489 3.375 9 3.375C9.89511 3.375 10.7536 3.73058 11.3865 4.36351C12.0194 4.99645 12.375 5.85489 12.375 6.75V6.75Z" fill="white"/>
<path fill-rule="evenodd" clip-rule="evenodd" d="M0 9C0 6.61305 0.948212 4.32387 2.63604 2.63604C4.32387 0.948212 6.61305 0 9 0C11.3869 0 13.6761 0.948212 15.364 2.63604C17.0518 4.32387 18 6.61305 18 9C18 11.3869 17.0518 13.6761 15.364 15.364C13.6761 17.0518 11.3869 18 9 18C6.61305 18 4.32387 17.0518 2.63604 15.364C0.948212 13.6761 0 11.3869 0 9V9ZM9 1.125C7.517 1.12508 6.06416 1.54391 4.8087 2.33328C3.55324 3.12265 2.54619 4.25049 1.90346 5.58697C1.26073 6.92345 1.00843 8.41426 1.17562 9.8878C1.34281 11.3613 1.92268 12.7577 2.8485 13.9162C3.64725 12.6292 5.40563 11.25 9 11.25C12.5944 11.25 14.3516 12.6281 15.1515 13.9162C16.0773 12.7577 16.6572 11.3613 16.8244 9.8878C16.9916 8.41426 16.7393 6.92345 16.0965 5.58697C15.4538 4.25049 14.4468 3.12265 13.1913 2.33328C11.9358 1.54391 10.483 1.12508 9 1.125V1.125Z" fill="white"/>
</svg>
