<svg width="116" height="121" viewBox="0 0 116 121" fill="none" xmlns="http://www.w3.org/2000/svg">
<g filter="url(#filter0_d_96_255)">
<path d="M29.7501 69.4815C29.7501 70.7523 29.2452 71.9711 28.3466 72.8697C27.448 73.7683 26.2292 74.2732 24.9584 74.2732C23.6876 74.2732 22.4688 73.7683 21.5702 72.8697C20.6716 71.9711 20.1667 70.7523 20.1667 69.4815V47.919C20.1667 46.6482 20.6716 45.4294 21.5702 44.5308C22.4688 43.6322 23.6876 43.1273 24.9584 43.1273C26.2292 43.1273 27.448 43.6322 28.3466 44.5308C29.2452 45.4294 29.7501 46.6482 29.7501 47.919V69.4815Z" fill="#7CB342"/>
<path d="M96.8333 69.4815C96.8333 70.7523 96.3285 71.9711 95.4299 72.8697C94.5313 73.7683 93.3125 74.2732 92.0417 74.2732C90.7708 74.2732 89.5521 73.7683 88.6534 72.8697C87.7548 71.9711 87.25 70.7523 87.25 69.4815V47.919C87.25 46.6482 87.7548 45.4294 88.6534 44.5308C89.5521 43.6322 90.7708 43.1273 92.0417 43.1273C93.3125 43.1273 94.5313 43.6322 95.4299 44.5308C96.3285 45.4294 96.8333 46.6482 96.8333 47.919V69.4815Z" fill="#7CB342"/>
<path d="M53.7083 95.8333C53.7083 97.1041 53.2035 98.3229 52.3049 99.2215C51.4063 100.12 50.1875 100.625 48.9167 100.625C47.6458 100.625 46.4271 100.12 45.5284 99.2215C44.6298 98.3229 44.125 97.1041 44.125 95.8333V74.2708C44.125 73 44.6298 71.7812 45.5284 70.8826C46.4271 69.984 47.6458 69.4791 48.9167 69.4791C50.1875 69.4791 51.4063 69.984 52.3049 70.8826C53.2035 71.7812 53.7083 73 53.7083 74.2708V95.8333Z" fill="#7CB342"/>
<path d="M72.8751 95.8333C72.8751 97.1041 72.3702 98.3229 71.4716 99.2215C70.573 100.12 69.3542 100.625 68.0834 100.625C66.8126 100.625 65.5938 100.12 64.6952 99.2215C63.7966 98.3229 63.2917 97.1041 63.2917 95.8333V74.2708C63.2917 73 63.7966 71.7812 64.6952 70.8826C65.5938 69.984 66.8126 69.4791 68.0834 69.4791C69.3542 69.4791 70.573 69.984 71.4716 70.8826C72.3702 71.7812 72.8751 73 72.8751 74.2708V95.8333Z" fill="#7CB342"/>
<path d="M34.5417 43.1273V79.0624C34.5417 80.3332 35.0466 81.552 35.9452 82.4506C36.8438 83.3493 38.0626 83.8541 39.3334 83.8541H77.6667C78.9376 83.8541 80.1564 83.3493 81.055 82.4506C81.9536 81.552 82.4584 80.3332 82.4584 79.0624V43.1273H34.5417Z" fill="#7CB342"/>
<path d="M58.5001 19.1666C44.1251 19.1666 35.3683 27.8994 34.5417 38.3333H82.4584C81.6295 27.8994 72.8751 19.1666 58.5001 19.1666ZM48.9167 32.5785C48.2813 32.5785 47.6719 32.3261 47.2226 31.8768C46.7733 31.4275 46.5209 30.8181 46.5209 30.1827C46.5209 29.5473 46.7733 28.9379 47.2226 28.4886C47.6719 28.0393 48.2813 27.7868 48.9167 27.7868C49.5522 27.7868 50.1616 28.0393 50.6109 28.4886C51.0602 28.9379 51.3126 29.5473 51.3126 30.1827C51.3126 30.8181 51.0602 31.4275 50.6109 31.8768C50.1616 32.3261 49.5522 32.5785 48.9167 32.5785ZM68.0834 32.5785C67.448 32.5785 66.8386 32.3261 66.3893 31.8768C65.94 31.4275 65.6876 30.8181 65.6876 30.1827C65.6876 29.5473 65.94 28.9379 66.3893 28.4886C66.8386 28.0393 67.448 27.7868 68.0834 27.7868C68.7188 27.7868 69.3282 28.0393 69.7775 28.4886C70.2268 28.9379 70.4792 29.5473 70.4792 30.1827C70.4792 30.8181 70.2268 31.4275 69.7775 31.8768C69.3282 32.3261 68.7188 32.5785 68.0834 32.5785Z" fill="#7CB342"/>
<path d="M72.875 16.7709L68.8835 22.7581" stroke="#7CB342" stroke-width="2" stroke-linecap="round"/>
<path d="M44.125 16.7709L47.3186 21.759" stroke="#7CB342" stroke-width="2" stroke-linecap="round"/>
</g>
<defs>
<filter id="filter0_d_96_255" x="-19" y="0" width="135" height="135" filterUnits="userSpaceOnUse" color-interpolation-filters="sRGB">
<feFlood flood-opacity="0" result="BackgroundImageFix"/>
<feColorMatrix in="SourceAlpha" type="matrix" values="0 0 0 0 0 0 0 0 0 0 0 0 0 0 0 0 0 0 127 0" result="hardAlpha"/>
<feOffset dx="-10" dy="10"/>
<feGaussianBlur stdDeviation="5"/>
<feComposite in2="hardAlpha" operator="out"/>
<feColorMatrix type="matrix" values="0 0 0 0 0 0 0 0 0 0 0 0 0 0 0 0 0 0 0.25 0"/>
<feBlend mode="normal" in2="BackgroundImageFix" result="effect1_dropShadow_96_255"/>
<feBlend mode="normal" in="SourceGraphic" in2="effect1_dropShadow_96_255" result="shape"/>
</filter>
</defs>
</svg>
