<svg width="50" height="50" viewBox="0 0 50 50" fill="none" xmlns="http://www.w3.org/2000/svg">
<path d="M41.6667 4.16663H8.33332C6.04166 4.16663 4.18749 6.04163 4.18749 8.33329L4.16666 45.8333L12.5 37.5H41.6667C43.9583 37.5 45.8333 35.625 45.8333 33.3333V8.33329C45.8333 6.04163 43.9583 4.16663 41.6667 4.16663ZM16.6667 29.1666H12.5V25H16.6667V29.1666ZM16.6667 22.9166H12.5V18.75H16.6667V22.9166ZM16.6667 16.6666H12.5V12.5H16.6667V16.6666ZM31.25 29.1666H20.8333V25H31.25V29.1666ZM37.5 22.9166H20.8333V18.75H37.5V22.9166ZM37.5 16.6666H20.8333V12.5H37.5V16.6666Z" fill="white"/>
</svg>
