<svg width="39" height="35" viewBox="0 0 39 35" fill="none" xmlns="http://www.w3.org/2000/svg">
<path d="M16.3399 20.135C15.8964 20.5761 15.5825 21.1306 15.4326 21.738C15.2827 22.3453 15.3025 22.9822 15.4899 23.579C15.6773 24.1759 16.0251 24.7098 16.4952 25.1224C16.9654 25.5351 17.5398 25.8107 18.1559 25.9191C18.772 26.0276 19.4061 25.9646 19.9889 25.7373C20.5717 25.5099 21.0808 25.1268 21.4607 24.6298C21.8406 24.1328 22.0766 23.5409 22.1431 22.9189C22.2095 22.2969 22.1038 21.6685 21.8375 21.1025L28.5757 14.4895L26.9708 12.8846L20.244 19.4976C19.6076 19.1855 18.8898 19.0792 18.1903 19.1934C17.4907 19.3076 16.844 19.6367 16.3399 20.135Z" fill="white"/>
<path d="M35.3821 13.6585C34.6282 13.9357 33.8388 14.1043 33.0374 14.1593C34.3361 16.3918 35.0888 18.8995 35.2342 21.478H31.2163V23.7545H35.2342C34.9693 27.0151 33.7367 30.1224 31.6943 32.678H5.87969C3.83737 30.1224 2.60476 27.0151 2.33985 23.7545H6.26668V21.478H2.33985C2.54033 17.8797 3.92037 14.4476 6.26668 11.7122L9.0553 14.5008L10.6602 12.8959L7.89432 10.0959C10.607 7.69832 14.0367 6.2656 17.6488 6.02112V10.0049H19.9252V6.0325C21.3118 6.1244 22.681 6.39213 24 6.82925C23.9444 6.4523 23.914 6.07205 23.909 5.69104C23.913 5.27555 23.9472 4.8609 24.0114 4.45039C20.1389 3.32397 16.0066 3.47483 12.2266 4.88064C8.44659 6.28645 5.21991 8.87243 3.02455 12.2555C0.829185 15.6386 -0.218094 19.6388 0.0378463 23.6637C0.293786 27.6885 1.83933 31.5239 4.44554 34.6016L4.787 35H32.787L33.1285 34.6016C35.5558 31.7462 37.0703 28.2281 37.4761 24.5025C37.882 20.7768 37.1605 17.0151 35.4049 13.7041L35.3821 13.6585Z" fill="white"/>
<path d="M32.4456 11.3821C35.5887 11.3821 38.1366 8.83415 38.1366 5.69106C38.1366 2.54797 35.5887 0 32.4456 0C29.3025 0 26.7545 2.54797 26.7545 5.69106C26.7545 8.83415 29.3025 11.3821 32.4456 11.3821Z" fill="white"/>
</svg>
