<svg width="36" height="36" viewBox="0 0 36 36" fill="none" xmlns="http://www.w3.org/2000/svg">
<path d="M15.8499 18.69C15.4602 19.0776 15.1844 19.5647 15.0527 20.0983C14.921 20.6319 14.9385 21.1915 15.1031 21.7158C15.2677 22.2402 15.5732 22.7093 15.9863 23.0718C16.3994 23.4344 16.9041 23.6765 17.4454 23.7718C17.9867 23.867 18.5437 23.8118 19.0557 23.612C19.5678 23.4122 20.0151 23.0757 20.3488 22.639C20.6826 22.2023 20.89 21.6824 20.9484 21.1359C21.0067 20.5894 20.9139 20.0373 20.6799 19.54L26.5999 13.73L25.1899 12.32L19.2799 18.13C18.7208 17.8558 18.0901 17.7624 17.4755 17.8627C16.8609 17.9631 16.2928 18.2522 15.8499 18.69Z" fill="white"/>
<path d="M32.5801 13C31.9177 13.2435 31.2241 13.3916 30.5201 13.44C31.6611 15.4013 32.3224 17.6045 32.4501 19.87H28.9201V21.87H32.4501C32.2174 24.7347 31.1344 27.4647 29.3401 29.71H6.66011C4.86578 27.4647 3.78285 24.7347 3.55011 21.87H7.00011V19.87H3.55011C3.72625 16.7086 4.93871 13.6933 7.00011 11.29L9.45011 13.74L10.8601 12.33L8.43011 9.86999C10.8134 7.76353 13.8266 6.50479 17.0001 6.28999V9.78999H19.0001V6.29999C20.2183 6.38073 21.4212 6.61595 22.5801 6.99999C22.5312 6.66881 22.5045 6.33474 22.5001 5.99999C22.5036 5.63496 22.5337 5.27066 22.5901 4.90999C19.1879 3.92035 15.5573 4.0529 12.2363 5.288C8.91531 6.52311 6.08045 8.79507 4.15166 11.7673C2.22288 14.7396 1.30277 18.2541 1.52764 21.7902C1.7525 25.3263 3.11037 28.696 5.40011 31.4L5.70011 31.75H30.3001L30.6001 31.4C32.7326 28.8913 34.0633 25.8004 34.4198 22.5272C34.7764 19.2539 34.1425 15.949 32.6001 13.04L32.5801 13Z" fill="white"/>
<path d="M30 11C32.7614 11 35 8.76142 35 6C35 3.23858 32.7614 1 30 1C27.2386 1 25 3.23858 25 6C25 8.76142 27.2386 11 30 11Z" fill="white"/>
</svg>
