<svg width="44" height="44" viewBox="0 0 44 44" fill="none" xmlns="http://www.w3.org/2000/svg">
<path d="M20.475 2.46459C21.5062 0.372927 24.4875 0.372927 25.5187 2.46459L30.4312 12.4167L41.4166 14.0125C43.7229 14.3479 44.6437 17.1833 42.975 18.8104L35.025 26.5604L36.902 37.4979C37.2979 39.7958 34.8854 41.5479 32.8208 40.4646L24.5791 36.1313C24.8729 35.0854 25.0437 33.9917 25.0791 32.8604L33.7145 37.4021L31.9187 26.925C31.8415 26.4756 31.8748 26.0142 32.0156 25.5805C32.1564 25.1467 32.4006 24.7538 32.727 24.4354L40.3395 17.0146L29.8187 15.4854C29.3677 15.4198 28.9395 15.2456 28.5707 14.9778C28.202 14.7099 27.9039 14.3565 27.702 13.9479L22.9958 4.41459L18.2916 13.9479C18.0898 14.3565 17.7917 14.7099 17.4229 14.9778C17.0542 15.2456 16.6259 15.4198 16.175 15.4854L5.65413 17.0146L8.06663 19.3667C6.96299 19.6587 5.90099 20.0899 4.90621 20.65L3.01871 18.8104C1.34996 17.1854 2.2708 14.3479 4.57705 14.0125L15.5625 12.4167L20.475 2.46459Z" fill="white"/>
<path d="M23 32.4583C23 33.9631 22.7036 35.4531 22.1278 36.8432C21.5519 38.2334 20.7079 39.4966 19.6439 40.5606C18.5799 41.6246 17.3167 42.4686 15.9266 43.0444C14.5364 43.6203 13.0464 43.9167 11.5416 43.9167C10.0369 43.9167 8.54692 43.6203 7.15673 43.0444C5.76654 42.4686 4.50339 41.6246 3.43938 40.5606C2.37538 39.4966 1.53136 38.2334 0.955527 36.8432C0.379691 35.4531 0.083313 33.9631 0.083313 32.4583C0.083313 29.4194 1.29053 26.5049 3.43938 24.3561C5.58824 22.2072 8.50271 21 11.5416 21C14.5806 21 17.4951 22.2072 19.6439 24.3561C21.7928 26.5049 23 29.4194 23 32.4583ZM5.29165 31.4167C5.01538 31.4167 4.75043 31.5264 4.55508 31.7218C4.35973 31.9171 4.24998 32.1821 4.24998 32.4583C4.24998 32.7346 4.35973 32.9996 4.55508 33.1949C4.75043 33.3903 5.01538 33.5 5.29165 33.5H15.2771L11.8458 36.9292C11.6502 37.1248 11.5403 37.39 11.5403 37.6667C11.5403 37.9433 11.6502 38.2086 11.8458 38.4042C12.0414 38.5998 12.3067 38.7096 12.5833 38.7096C12.8599 38.7096 13.1252 38.5998 13.3208 38.4042L18.5291 33.1958C18.6262 33.0991 18.7031 32.9841 18.7556 32.8576C18.8081 32.731 18.8352 32.5953 18.8352 32.4583C18.8352 32.3213 18.8081 32.1856 18.7556 32.0591C18.7031 31.9325 18.6262 31.8176 18.5291 31.7208L13.3208 26.5125C13.1252 26.3169 12.8599 26.207 12.5833 26.207C12.3067 26.207 12.0414 26.3169 11.8458 26.5125C11.6502 26.7081 11.5403 26.9734 11.5403 27.25C11.5403 27.5266 11.6502 27.7919 11.8458 27.9875L15.2771 31.4167H5.29165Z" fill="white"/>
</svg>
